<svg width="82" height="16" viewBox="0 0 82 16" fill="none" xmlns="http://www.w3.org/2000/svg">
<path d="M7.485 10.14H3.555L2.925 12H0.24L4.05 1.47H7.02L10.83 12H8.115L7.485 10.14ZM6.825 8.16L5.52 4.305L4.23 8.16H6.825ZM14.5546 4.815C14.8046 4.425 15.1496 4.11 15.5896 3.87C16.0296 3.63 16.5446 3.51 17.1346 3.51C17.8246 3.51 18.4496 3.685 19.0096 4.035C19.5696 4.385 20.0096 4.885 20.3296 5.535C20.6596 6.185 20.8246 6.94 20.8246 7.8C20.8246 8.66 20.6596 9.42 20.3296 10.08C20.0096 10.73 19.5696 11.235 19.0096 11.595C18.4496 11.945 17.8246 12.12 17.1346 12.12C16.5546 12.12 16.0396 12 15.5896 11.76C15.1496 11.52 14.8046 11.21 14.5546 10.83V15.99H11.9896V3.63H14.5546V4.815ZM18.2146 7.8C18.2146 7.16 18.0346 6.66 17.6746 6.3C17.3246 5.93 16.8896 5.745 16.3696 5.745C15.8596 5.745 15.4246 5.93 15.0646 6.3C14.7146 6.67 14.5396 7.175 14.5396 7.815C14.5396 8.455 14.7146 8.96 15.0646 9.33C15.4246 9.7 15.8596 9.885 16.3696 9.885C16.8796 9.885 17.3146 9.7 17.6746 9.33C18.0346 8.95 18.2146 8.44 18.2146 7.8ZM24.7352 4.815C24.9852 4.425 25.3302 4.11 25.7702 3.87C26.2102 3.63 26.7252 3.51 27.3152 3.51C28.0052 3.51 28.6302 3.685 29.1902 4.035C29.7502 4.385 30.1902 4.885 30.5102 5.535C30.8402 6.185 31.0052 6.94 31.0052 7.8C31.0052 8.66 30.8402 9.42 30.5102 10.08C30.1902 10.73 29.7502 11.235 29.1902 11.595C28.6302 11.945 28.0052 12.12 27.3152 12.12C26.7352 12.12 26.2202 12 25.7702 11.76C25.3302 11.52 24.9852 11.21 24.7352 10.83V15.99H22.1702V3.63H24.7352V4.815ZM28.3952 7.8C28.3952 7.16 28.2152 6.66 27.8552 6.3C27.5052 5.93 27.0702 5.745 26.5502 5.745C26.0402 5.745 25.6052 5.93 25.2452 6.3C24.8952 6.67 24.7202 7.175 24.7202 7.815C24.7202 8.455 24.8952 8.96 25.2452 9.33C25.6052 9.7 26.0402 9.885 26.5502 9.885C27.0602 9.885 27.4952 9.7 27.8552 9.33C28.2152 8.95 28.3952 8.44 28.3952 7.8ZM34.9159 0.9V12H32.3509V0.9H34.9159ZM45.3247 3.63L40.0747 15.975H37.3147L39.2347 11.715L35.8297 3.63H38.6947L40.6297 8.865L42.5497 3.63H45.3247ZM54.531 3.54C55.511 3.54 56.291 3.86 56.871 4.5C57.461 5.13 57.756 6 57.756 7.11V12H55.206V7.455C55.206 6.895 55.061 6.46 54.771 6.15C54.481 5.84 54.091 5.685 53.601 5.685C53.111 5.685 52.721 5.84 52.431 6.15C52.141 6.46 51.996 6.895 51.996 7.455V12H49.431V3.63H51.996V4.74C52.256 4.37 52.606 4.08 53.046 3.87C53.486 3.65 53.981 3.54 54.531 3.54ZM63.3484 12.12C62.5284 12.12 61.7884 11.945 61.1284 11.595C60.4784 11.245 59.9634 10.745 59.5834 10.095C59.2134 9.445 59.0284 8.685 59.0284 7.815C59.0284 6.955 59.2184 6.2 59.5984 5.55C59.9784 4.89 60.4984 4.385 61.1584 4.035C61.8184 3.685 62.5584 3.51 63.3784 3.51C64.1984 3.51 64.9384 3.685 65.5984 4.035C66.2584 4.385 66.7784 4.89 67.1584 5.55C67.5384 6.2 67.7284 6.955 67.7284 7.815C67.7284 8.675 67.5334 9.435 67.1434 10.095C66.7634 10.745 66.2384 11.245 65.5684 11.595C64.9084 11.945 64.1684 12.12 63.3484 12.12ZM63.3484 9.9C63.8384 9.9 64.2534 9.72 64.5934 9.36C64.9434 9 65.1184 8.485 65.1184 7.815C65.1184 7.145 64.9484 6.63 64.6084 6.27C64.2784 5.91 63.8684 5.73 63.3784 5.73C62.8784 5.73 62.4634 5.91 62.1334 6.27C61.8034 6.62 61.6384 7.135 61.6384 7.815C61.6384 8.485 61.7984 9 62.1184 9.36C62.4484 9.72 62.8584 9.9 63.3484 9.9ZM81.1042 3.63L78.8392 12H76.0042L74.6842 6.57L73.3192 12H70.4992L68.2192 3.63H70.7842L71.9692 9.615L73.3792 3.63H76.0942L77.5192 9.585L78.6892 3.63H81.1042Z" fill="#151515"/>
</svg>
